<?xml version="1.0" encoding="UTF-8" standalone="no" ?>
<!DOCTYPE svg PUBLIC "-//W3C//DTD SVG 1.1//EN" "http://www.w3.org/Graphics/SVG/1.1/DTD/svg11.dtd">
<svg xmlns="http://www.w3.org/2000/svg" xmlns:xlink="http://www.w3.org/1999/xlink" version="1.1" width="279.88413523870804" height="279.88744141321223" viewBox="110.05793238064598 110.05627929339391 279.88413523870804 279.88744141321223" xml:space="preserve">
<defs>
</defs>
<g transform="matrix(1 0 0 1 250 250)" id="jdpmfnhMpXbQd5CCGnY3R"  >
<path style="stroke: none; stroke-width: 1; stroke-dasharray: none; stroke-linecap: butt; stroke-dashoffset: 0; stroke-linejoin: miter; stroke-miterlimit: 4; fill: rgb(34,171,157); fill-rule: nonzero; opacity: 1;" vector-effect="non-scaling-stroke"  transform=" translate(-148.04, -146.96)" d="M 162.31 270.26 C 189.02 267.93 219.75 254.26 241.63 228.95 C 266.18 200.51 276.03 167.37 271.42 130.17 C 263.83 69.08 207.15 14.35 132.14 23.39 C 68.42 31.07 16 88.8 24.38 161.67 C 31.89 227.15 87 266.81 133.66 270.08 Q 133.92 266.78 134.15 263.5 C 134.64000000000001 257.02 135.15 250.56 135.58 244.09 C 135.85000000000002 240.22 135.96 236.35 136.24 232.48000000000002 C 136.59 227.83 137.12 223.19000000000003 137.46 218.54000000000002 C 137.99 211.45000000000002 138.46 204.34000000000003 138.91 197.24 Q 139.69 185.64000000000001 140.5 174.04000000000002 C 140.77 170.17000000000002 141.1 166.31000000000003 141.43 162.44000000000003 C 141.61 160.19000000000003 141.71 158.00000000000003 139.20000000000002 156.79000000000002 C 138.86 156.63000000000002 138.63000000000002 156.25000000000003 138.35000000000002 155.97000000000003 C 134.06939835416614 151.63137554879592 133.34030135223776 144.91622645717138 136.59000000000003 139.76000000000002 C 139.31000000000003 135.22000000000003 146.20000000000005 132.03000000000003 151.92000000000004 134.05 C 157.31000000000003 135.95000000000002 160.47000000000006 139.68 161.27000000000004 145.24 C 161.99000000000004 150.3 160.01000000000005 154.38 156.02000000000004 157.5 L 154.41000000000003 158.72 L 162.31000000000003 270.26 M 148.31000000000003 286.4 C 109.38000000000002 285.63 75.96000000000004 272.26 48.800000000000026 244.72999999999996 C 21 216.5 7.52 182.07 8.67 142.49 C 9.73 105.80000000000001 23.490000000000002 74.04 49.67 48.19000000000001 C 78.43 19.7 113.49 6.09 154 7.63 C 229.38144290048427 10.622663295022013 288.6148608609234 73.19786320827525 287.47 148.62999999999997 C 287.16 184.49 274.42 216.01 249.73000000000002 242.13 C 222.23000000000002 271.21999999999997 188.03000000000003 285.53 148.40000000000003 286.37" stroke-linecap="round" />
</g>
<g transform="matrix(1 0 0 1 249.9 246.06)" id="SowcniQj3Pi0T5t2IivnU"  >
<path style="stroke: none; stroke-width: 1; stroke-dasharray: none; stroke-linecap: butt; stroke-dashoffset: 0; stroke-linejoin: miter; stroke-miterlimit: 4; fill: rgb(34,171,157); fill-rule: nonzero; opacity: 1;" vector-effect="non-scaling-stroke"  transform=" translate(-147.94, -143.02)" d="M 180.82 217.16 C 179.93 210.04999999999998 179 203.04 178.35999999999999 195.93 C 194.67 185.17000000000002 204.04999999999998 170.13 205.5 150.74 C 206.77937686211197 135.66754432872145 201.82413557168377 120.72953393241241 191.79 109.41000000000004 C 181.13276015877938 96.87993184109105 165.6253553624142 89.50610442862018 149.1799403422848 89.14876157377888 C 132.7345253221554 88.79141871893759 116.92145632675148 95.48468273388804 105.72999999999998 107.54000000000002 C 93.42999999999999 120.78 88.44999999999999 136.72 90.85 154.63 C 93.25 172.54 102.56 186.15 117.63 196.03 C 116.81 203.03 115.97999999999999 210.03 115.14999999999999 217.03 C 88.14999999999999 205.32 66.75999999999999 174.63 70.55999999999999 138.92000000000002 C 74.30400125130257 101.47420469322596 104.31616383627318 72.07804510964829 141.83154251446325 69.11131388512185 C 179.34692119265327 66.1445826605954 213.60646738197488 90.45810968140451 223.18958180421487 126.84999132411204 C 232.77269622645485 163.24187296681959 214.93103414221895 201.27526875738516 180.82000000000005 217.17000000000002" stroke-linecap="round" />
</g>
</svg>